<mxfile host="app.diagrams.net" modified="2023-11-13T00:59:47.198Z" agent="Mozilla/5.0 (Windows NT 10.0; Win64; x64; rv:109.0) Gecko/20100101 Firefox/119.0" etag="2YEwnTpp5lZt65FMexfH" version="22.1.0" type="device">
  <diagram id="kgpKYQtTHZ0yAKxKKP6v" name="Page-1">
    <mxGraphModel dx="2924" dy="1124" grid="1" gridSize="10" guides="1" tooltips="1" connect="1" arrows="1" fold="1" page="1" pageScale="1" pageWidth="850" pageHeight="1100" math="0" shadow="0">
      <root>
        <mxCell id="0" />
        <mxCell id="1" parent="0" />
        <mxCell id="fhwNgSKuaAS_qJW0CyvW-2" value="" style="rounded=0;whiteSpace=wrap;html=1;" vertex="1" parent="1">
          <mxGeometry x="-75" y="120" width="120" height="60" as="geometry" />
        </mxCell>
        <mxCell id="fhwNgSKuaAS_qJW0CyvW-14" value="&lt;u&gt;Object_ID&lt;/u&gt;" style="text;html=1;strokeColor=none;fillColor=none;align=center;verticalAlign=middle;whiteSpace=wrap;rounded=0;" vertex="1" parent="1">
          <mxGeometry x="-45" y="135" width="60" height="30" as="geometry" />
        </mxCell>
        <mxCell id="fhwNgSKuaAS_qJW0CyvW-15" value="" style="rounded=0;whiteSpace=wrap;html=1;" vertex="1" parent="1">
          <mxGeometry x="45" y="120" width="120" height="60" as="geometry" />
        </mxCell>
        <mxCell id="fhwNgSKuaAS_qJW0CyvW-16" value="Mass" style="text;html=1;strokeColor=none;fillColor=none;align=center;verticalAlign=middle;whiteSpace=wrap;rounded=0;" vertex="1" parent="1">
          <mxGeometry x="75" y="135" width="60" height="30" as="geometry" />
        </mxCell>
        <mxCell id="fhwNgSKuaAS_qJW0CyvW-17" value="" style="rounded=0;whiteSpace=wrap;html=1;" vertex="1" parent="1">
          <mxGeometry x="165" y="120" width="120" height="60" as="geometry" />
        </mxCell>
        <mxCell id="fhwNgSKuaAS_qJW0CyvW-18" value="Width" style="text;html=1;strokeColor=none;fillColor=none;align=center;verticalAlign=middle;whiteSpace=wrap;rounded=0;" vertex="1" parent="1">
          <mxGeometry x="195" y="135" width="60" height="30" as="geometry" />
        </mxCell>
        <mxCell id="fhwNgSKuaAS_qJW0CyvW-19" value="" style="rounded=0;whiteSpace=wrap;html=1;" vertex="1" parent="1">
          <mxGeometry x="285" y="120" width="120" height="60" as="geometry" />
        </mxCell>
        <mxCell id="fhwNgSKuaAS_qJW0CyvW-20" value="Hieght" style="text;html=1;strokeColor=none;fillColor=none;align=center;verticalAlign=middle;whiteSpace=wrap;rounded=0;" vertex="1" parent="1">
          <mxGeometry x="315" y="135" width="60" height="30" as="geometry" />
        </mxCell>
        <mxCell id="fhwNgSKuaAS_qJW0CyvW-21" value="" style="rounded=0;whiteSpace=wrap;html=1;" vertex="1" parent="1">
          <mxGeometry x="405" y="120" width="120" height="60" as="geometry" />
        </mxCell>
        <mxCell id="fhwNgSKuaAS_qJW0CyvW-22" value="Name" style="text;html=1;strokeColor=none;fillColor=none;align=center;verticalAlign=middle;whiteSpace=wrap;rounded=0;" vertex="1" parent="1">
          <mxGeometry x="435" y="135" width="60" height="30" as="geometry" />
        </mxCell>
        <mxCell id="fhwNgSKuaAS_qJW0CyvW-23" value="" style="rounded=0;whiteSpace=wrap;html=1;" vertex="1" parent="1">
          <mxGeometry x="525" y="120" width="120" height="60" as="geometry" />
        </mxCell>
        <mxCell id="fhwNgSKuaAS_qJW0CyvW-24" value="&lt;u&gt;Type_ID&lt;/u&gt;" style="text;html=1;strokeColor=none;fillColor=none;align=center;verticalAlign=middle;whiteSpace=wrap;rounded=0;" vertex="1" parent="1">
          <mxGeometry x="555" y="135" width="60" height="30" as="geometry" />
        </mxCell>
        <mxCell id="fhwNgSKuaAS_qJW0CyvW-25" value="" style="rounded=0;whiteSpace=wrap;html=1;" vertex="1" parent="1">
          <mxGeometry x="645" y="120" width="120" height="60" as="geometry" />
        </mxCell>
        <mxCell id="fhwNgSKuaAS_qJW0CyvW-26" value="&lt;u&gt;Launch_ID&lt;/u&gt;" style="text;html=1;strokeColor=none;fillColor=none;align=center;verticalAlign=middle;whiteSpace=wrap;rounded=0;" vertex="1" parent="1">
          <mxGeometry x="675" y="135" width="60" height="30" as="geometry" />
        </mxCell>
        <mxCell id="fhwNgSKuaAS_qJW0CyvW-27" value="" style="rounded=0;whiteSpace=wrap;html=1;" vertex="1" parent="1">
          <mxGeometry x="765" y="120" width="120" height="60" as="geometry" />
        </mxCell>
        <mxCell id="fhwNgSKuaAS_qJW0CyvW-28" value="&lt;u&gt;Orbit_ID&lt;/u&gt;" style="text;html=1;strokeColor=none;fillColor=none;align=center;verticalAlign=middle;whiteSpace=wrap;rounded=0;" vertex="1" parent="1">
          <mxGeometry x="795" y="135" width="60" height="30" as="geometry" />
        </mxCell>
        <mxCell id="fhwNgSKuaAS_qJW0CyvW-29" value="" style="rounded=0;whiteSpace=wrap;html=1;" vertex="1" parent="1">
          <mxGeometry x="885" y="120" width="120" height="60" as="geometry" />
        </mxCell>
        <mxCell id="fhwNgSKuaAS_qJW0CyvW-30" value="&lt;u&gt;Projected_ID&lt;/u&gt;" style="text;html=1;strokeColor=none;fillColor=none;align=center;verticalAlign=middle;whiteSpace=wrap;rounded=0;" vertex="1" parent="1">
          <mxGeometry x="915" y="135" width="60" height="30" as="geometry" />
        </mxCell>
        <mxCell id="fhwNgSKuaAS_qJW0CyvW-31" value="" style="rounded=0;whiteSpace=wrap;html=1;" vertex="1" parent="1">
          <mxGeometry x="1005" y="120" width="120" height="60" as="geometry" />
        </mxCell>
        <mxCell id="fhwNgSKuaAS_qJW0CyvW-32" value="&lt;u&gt;Sites_ID&lt;/u&gt;" style="text;html=1;strokeColor=none;fillColor=none;align=center;verticalAlign=middle;whiteSpace=wrap;rounded=0;" vertex="1" parent="1">
          <mxGeometry x="1035" y="135" width="60" height="30" as="geometry" />
        </mxCell>
        <mxCell id="fhwNgSKuaAS_qJW0CyvW-33" value="" style="rounded=0;whiteSpace=wrap;html=1;" vertex="1" parent="1">
          <mxGeometry x="1125" y="120" width="120" height="60" as="geometry" />
        </mxCell>
        <mxCell id="fhwNgSKuaAS_qJW0CyvW-34" value="&lt;u&gt;Dock_ID&lt;/u&gt;" style="text;html=1;strokeColor=none;fillColor=none;align=center;verticalAlign=middle;whiteSpace=wrap;rounded=0;" vertex="1" parent="1">
          <mxGeometry x="1155" y="135" width="60" height="30" as="geometry" />
        </mxCell>
        <mxCell id="fhwNgSKuaAS_qJW0CyvW-35" value="&lt;font style=&quot;font-size: 24px;&quot;&gt;OBJECTS&lt;/font&gt;" style="text;html=1;strokeColor=none;fillColor=none;align=center;verticalAlign=middle;whiteSpace=wrap;rounded=0;" vertex="1" parent="1">
          <mxGeometry x="-55" y="80" width="80" height="40" as="geometry" />
        </mxCell>
        <mxCell id="fhwNgSKuaAS_qJW0CyvW-132" style="edgeStyle=orthogonalEdgeStyle;rounded=0;orthogonalLoop=1;jettySize=auto;html=1;entryX=0.5;entryY=1;entryDx=0;entryDy=0;" edge="1" parent="1" source="fhwNgSKuaAS_qJW0CyvW-36" target="fhwNgSKuaAS_qJW0CyvW-23">
          <mxGeometry relative="1" as="geometry">
            <Array as="points">
              <mxPoint x="-20" y="390" />
              <mxPoint x="585" y="390" />
            </Array>
          </mxGeometry>
        </mxCell>
        <mxCell id="fhwNgSKuaAS_qJW0CyvW-36" value="" style="rounded=0;whiteSpace=wrap;html=1;" vertex="1" parent="1">
          <mxGeometry x="-80" y="270" width="120" height="60" as="geometry" />
        </mxCell>
        <mxCell id="fhwNgSKuaAS_qJW0CyvW-37" value="&lt;u&gt;Type_ID&lt;/u&gt;" style="text;html=1;strokeColor=none;fillColor=none;align=center;verticalAlign=middle;whiteSpace=wrap;rounded=0;" vertex="1" parent="1">
          <mxGeometry x="-50" y="285" width="60" height="30" as="geometry" />
        </mxCell>
        <mxCell id="fhwNgSKuaAS_qJW0CyvW-38" value="" style="rounded=0;whiteSpace=wrap;html=1;" vertex="1" parent="1">
          <mxGeometry x="40" y="270" width="120" height="60" as="geometry" />
        </mxCell>
        <mxCell id="fhwNgSKuaAS_qJW0CyvW-39" value="Type" style="text;html=1;strokeColor=none;fillColor=none;align=center;verticalAlign=middle;whiteSpace=wrap;rounded=0;" vertex="1" parent="1">
          <mxGeometry x="70" y="285" width="60" height="30" as="geometry" />
        </mxCell>
        <mxCell id="fhwNgSKuaAS_qJW0CyvW-40" value="&lt;font style=&quot;font-size: 24px;&quot;&gt;OBJECTS TYPE&lt;/font&gt;" style="text;html=1;strokeColor=none;fillColor=none;align=center;verticalAlign=middle;whiteSpace=wrap;rounded=0;" vertex="1" parent="1">
          <mxGeometry x="-80" y="230" width="200" height="40" as="geometry" />
        </mxCell>
        <mxCell id="fhwNgSKuaAS_qJW0CyvW-131" style="edgeStyle=orthogonalEdgeStyle;rounded=0;orthogonalLoop=1;jettySize=auto;html=1;entryX=0.5;entryY=1;entryDx=0;entryDy=0;" edge="1" parent="1" source="fhwNgSKuaAS_qJW0CyvW-41" target="fhwNgSKuaAS_qJW0CyvW-25">
          <mxGeometry relative="1" as="geometry">
            <Array as="points">
              <mxPoint x="-30" y="560" />
              <mxPoint x="705" y="560" />
            </Array>
          </mxGeometry>
        </mxCell>
        <mxCell id="fhwNgSKuaAS_qJW0CyvW-41" value="" style="rounded=0;whiteSpace=wrap;html=1;" vertex="1" parent="1">
          <mxGeometry x="-90" y="450" width="120" height="60" as="geometry" />
        </mxCell>
        <mxCell id="fhwNgSKuaAS_qJW0CyvW-42" value="&lt;u&gt;Launch_ID&lt;/u&gt;" style="text;html=1;strokeColor=none;fillColor=none;align=center;verticalAlign=middle;whiteSpace=wrap;rounded=0;" vertex="1" parent="1">
          <mxGeometry x="-60" y="465" width="60" height="30" as="geometry" />
        </mxCell>
        <mxCell id="fhwNgSKuaAS_qJW0CyvW-134" style="edgeStyle=orthogonalEdgeStyle;rounded=0;orthogonalLoop=1;jettySize=auto;html=1;entryX=0.5;entryY=1;entryDx=0;entryDy=0;" edge="1" parent="1" source="fhwNgSKuaAS_qJW0CyvW-43" target="fhwNgSKuaAS_qJW0CyvW-61">
          <mxGeometry relative="1" as="geometry">
            <Array as="points">
              <mxPoint x="90" y="530" />
              <mxPoint x="1185" y="530" />
            </Array>
          </mxGeometry>
        </mxCell>
        <mxCell id="fhwNgSKuaAS_qJW0CyvW-43" value="" style="rounded=0;whiteSpace=wrap;html=1;" vertex="1" parent="1">
          <mxGeometry x="30" y="450" width="120" height="60" as="geometry" />
        </mxCell>
        <mxCell id="fhwNgSKuaAS_qJW0CyvW-44" value="&lt;u&gt;Site_ID&lt;/u&gt;" style="text;html=1;strokeColor=none;fillColor=none;align=center;verticalAlign=middle;whiteSpace=wrap;rounded=0;" vertex="1" parent="1">
          <mxGeometry x="60" y="465" width="60" height="30" as="geometry" />
        </mxCell>
        <mxCell id="fhwNgSKuaAS_qJW0CyvW-45" value="" style="rounded=0;whiteSpace=wrap;html=1;" vertex="1" parent="1">
          <mxGeometry x="150" y="450" width="120" height="60" as="geometry" />
        </mxCell>
        <mxCell id="fhwNgSKuaAS_qJW0CyvW-46" value="Launch_Date" style="text;html=1;strokeColor=none;fillColor=none;align=center;verticalAlign=middle;whiteSpace=wrap;rounded=0;" vertex="1" parent="1">
          <mxGeometry x="180" y="465" width="60" height="30" as="geometry" />
        </mxCell>
        <mxCell id="fhwNgSKuaAS_qJW0CyvW-47" value="" style="rounded=0;whiteSpace=wrap;html=1;" vertex="1" parent="1">
          <mxGeometry x="270" y="450" width="120" height="60" as="geometry" />
        </mxCell>
        <mxCell id="fhwNgSKuaAS_qJW0CyvW-48" value="&lt;div&gt;Launch_Time&lt;/div&gt;" style="text;html=1;strokeColor=none;fillColor=none;align=center;verticalAlign=middle;whiteSpace=wrap;rounded=0;" vertex="1" parent="1">
          <mxGeometry x="300" y="465" width="60" height="30" as="geometry" />
        </mxCell>
        <mxCell id="fhwNgSKuaAS_qJW0CyvW-49" value="" style="rounded=0;whiteSpace=wrap;html=1;" vertex="1" parent="1">
          <mxGeometry x="390" y="450" width="120" height="60" as="geometry" />
        </mxCell>
        <mxCell id="fhwNgSKuaAS_qJW0CyvW-50" value="Success/Failure" style="text;html=1;strokeColor=none;fillColor=none;align=center;verticalAlign=middle;whiteSpace=wrap;rounded=0;" vertex="1" parent="1">
          <mxGeometry x="420" y="465" width="60" height="30" as="geometry" />
        </mxCell>
        <mxCell id="fhwNgSKuaAS_qJW0CyvW-51" value="&lt;font style=&quot;font-size: 24px;&quot;&gt;Original Launch&lt;/font&gt;" style="text;html=1;strokeColor=none;fillColor=none;align=center;verticalAlign=middle;whiteSpace=wrap;rounded=0;" vertex="1" parent="1">
          <mxGeometry x="-90" y="410" width="180" height="40" as="geometry" />
        </mxCell>
        <mxCell id="fhwNgSKuaAS_qJW0CyvW-130" style="edgeStyle=orthogonalEdgeStyle;rounded=0;orthogonalLoop=1;jettySize=auto;html=1;entryX=0.5;entryY=1;entryDx=0;entryDy=0;" edge="1" parent="1" source="fhwNgSKuaAS_qJW0CyvW-52" target="fhwNgSKuaAS_qJW0CyvW-27">
          <mxGeometry relative="1" as="geometry">
            <Array as="points">
              <mxPoint x="825" y="730" />
            </Array>
          </mxGeometry>
        </mxCell>
        <mxCell id="fhwNgSKuaAS_qJW0CyvW-52" value="" style="rounded=0;whiteSpace=wrap;html=1;" vertex="1" parent="1">
          <mxGeometry x="105" y="620" width="120" height="60" as="geometry" />
        </mxCell>
        <mxCell id="fhwNgSKuaAS_qJW0CyvW-53" value="&lt;u&gt;Orbit_ID&lt;/u&gt;" style="text;html=1;strokeColor=none;fillColor=none;align=center;verticalAlign=middle;whiteSpace=wrap;rounded=0;" vertex="1" parent="1">
          <mxGeometry x="135" y="635" width="60" height="30" as="geometry" />
        </mxCell>
        <mxCell id="fhwNgSKuaAS_qJW0CyvW-54" value="" style="rounded=0;whiteSpace=wrap;html=1;" vertex="1" parent="1">
          <mxGeometry x="225" y="620" width="120" height="60" as="geometry" />
        </mxCell>
        <mxCell id="fhwNgSKuaAS_qJW0CyvW-55" value="Inclination" style="text;html=1;strokeColor=none;fillColor=none;align=center;verticalAlign=middle;whiteSpace=wrap;rounded=0;" vertex="1" parent="1">
          <mxGeometry x="255" y="635" width="60" height="30" as="geometry" />
        </mxCell>
        <mxCell id="fhwNgSKuaAS_qJW0CyvW-56" value="" style="rounded=0;whiteSpace=wrap;html=1;" vertex="1" parent="1">
          <mxGeometry x="345" y="620" width="120" height="60" as="geometry" />
        </mxCell>
        <mxCell id="fhwNgSKuaAS_qJW0CyvW-57" value="Periapsis" style="text;html=1;strokeColor=none;fillColor=none;align=center;verticalAlign=middle;whiteSpace=wrap;rounded=0;" vertex="1" parent="1">
          <mxGeometry x="375" y="635" width="60" height="30" as="geometry" />
        </mxCell>
        <mxCell id="fhwNgSKuaAS_qJW0CyvW-58" value="" style="rounded=0;whiteSpace=wrap;html=1;" vertex="1" parent="1">
          <mxGeometry x="465" y="620" width="120" height="60" as="geometry" />
        </mxCell>
        <mxCell id="fhwNgSKuaAS_qJW0CyvW-59" value="Apoapsis" style="text;html=1;strokeColor=none;fillColor=none;align=center;verticalAlign=middle;whiteSpace=wrap;rounded=0;" vertex="1" parent="1">
          <mxGeometry x="495" y="635" width="60" height="30" as="geometry" />
        </mxCell>
        <mxCell id="fhwNgSKuaAS_qJW0CyvW-60" value="&lt;font style=&quot;font-size: 24px;&quot;&gt;ORIBT&lt;/font&gt;" style="text;html=1;strokeColor=none;fillColor=none;align=center;verticalAlign=middle;whiteSpace=wrap;rounded=0;" vertex="1" parent="1">
          <mxGeometry x="125" y="580" width="80" height="40" as="geometry" />
        </mxCell>
        <mxCell id="fhwNgSKuaAS_qJW0CyvW-128" style="edgeStyle=orthogonalEdgeStyle;rounded=0;orthogonalLoop=1;jettySize=auto;html=1;entryX=0.458;entryY=1;entryDx=0;entryDy=0;entryPerimeter=0;" edge="1" parent="1" source="fhwNgSKuaAS_qJW0CyvW-61" target="fhwNgSKuaAS_qJW0CyvW-31">
          <mxGeometry relative="1" as="geometry">
            <mxPoint x="1060" y="190" as="targetPoint" />
            <Array as="points">
              <mxPoint x="1060" y="420" />
            </Array>
          </mxGeometry>
        </mxCell>
        <mxCell id="fhwNgSKuaAS_qJW0CyvW-61" value="" style="rounded=0;whiteSpace=wrap;html=1;" vertex="1" parent="1">
          <mxGeometry x="1125" y="390" width="120" height="60" as="geometry" />
        </mxCell>
        <mxCell id="fhwNgSKuaAS_qJW0CyvW-62" value="&lt;u&gt;Site_ID&lt;/u&gt;" style="text;html=1;strokeColor=none;fillColor=none;align=center;verticalAlign=middle;whiteSpace=wrap;rounded=0;" vertex="1" parent="1">
          <mxGeometry x="1155" y="405" width="60" height="30" as="geometry" />
        </mxCell>
        <mxCell id="fhwNgSKuaAS_qJW0CyvW-63" value="" style="rounded=0;whiteSpace=wrap;html=1;" vertex="1" parent="1">
          <mxGeometry x="1245" y="390" width="120" height="60" as="geometry" />
        </mxCell>
        <mxCell id="fhwNgSKuaAS_qJW0CyvW-64" value="Name" style="text;html=1;strokeColor=none;fillColor=none;align=center;verticalAlign=middle;whiteSpace=wrap;rounded=0;" vertex="1" parent="1">
          <mxGeometry x="1275" y="405" width="60" height="30" as="geometry" />
        </mxCell>
        <mxCell id="fhwNgSKuaAS_qJW0CyvW-65" value="" style="rounded=0;whiteSpace=wrap;html=1;" vertex="1" parent="1">
          <mxGeometry x="1365" y="390" width="120" height="60" as="geometry" />
        </mxCell>
        <mxCell id="fhwNgSKuaAS_qJW0CyvW-66" value="Latitude" style="text;html=1;strokeColor=none;fillColor=none;align=center;verticalAlign=middle;whiteSpace=wrap;rounded=0;" vertex="1" parent="1">
          <mxGeometry x="1395" y="405" width="60" height="30" as="geometry" />
        </mxCell>
        <mxCell id="fhwNgSKuaAS_qJW0CyvW-67" value="" style="rounded=0;whiteSpace=wrap;html=1;" vertex="1" parent="1">
          <mxGeometry x="1485" y="390" width="120" height="60" as="geometry" />
        </mxCell>
        <mxCell id="fhwNgSKuaAS_qJW0CyvW-68" value="Logitude" style="text;html=1;strokeColor=none;fillColor=none;align=center;verticalAlign=middle;whiteSpace=wrap;rounded=0;" vertex="1" parent="1">
          <mxGeometry x="1515" y="405" width="60" height="30" as="geometry" />
        </mxCell>
        <mxCell id="fhwNgSKuaAS_qJW0CyvW-69" value="" style="rounded=0;whiteSpace=wrap;html=1;" vertex="1" parent="1">
          <mxGeometry x="1605" y="390" width="120" height="60" as="geometry" />
        </mxCell>
        <mxCell id="fhwNgSKuaAS_qJW0CyvW-70" value="Altitude" style="text;html=1;strokeColor=none;fillColor=none;align=center;verticalAlign=middle;whiteSpace=wrap;rounded=0;" vertex="1" parent="1">
          <mxGeometry x="1635" y="405" width="60" height="30" as="geometry" />
        </mxCell>
        <mxCell id="fhwNgSKuaAS_qJW0CyvW-71" value="&lt;font style=&quot;font-size: 24px;&quot;&gt;LAUNCH SITES&lt;br&gt;&lt;/font&gt;" style="text;html=1;strokeColor=none;fillColor=none;align=center;verticalAlign=middle;whiteSpace=wrap;rounded=0;" vertex="1" parent="1">
          <mxGeometry x="1125" y="350" width="185" height="40" as="geometry" />
        </mxCell>
        <mxCell id="fhwNgSKuaAS_qJW0CyvW-129" style="edgeStyle=orthogonalEdgeStyle;rounded=0;orthogonalLoop=1;jettySize=auto;html=1;entryX=0.5;entryY=1;entryDx=0;entryDy=0;" edge="1" parent="1" source="fhwNgSKuaAS_qJW0CyvW-100" target="fhwNgSKuaAS_qJW0CyvW-29">
          <mxGeometry relative="1" as="geometry">
            <Array as="points">
              <mxPoint x="-15" y="910" />
              <mxPoint x="945" y="910" />
            </Array>
          </mxGeometry>
        </mxCell>
        <mxCell id="fhwNgSKuaAS_qJW0CyvW-100" value="" style="rounded=0;whiteSpace=wrap;html=1;" vertex="1" parent="1">
          <mxGeometry x="-75" y="810" width="120" height="60" as="geometry" />
        </mxCell>
        <mxCell id="fhwNgSKuaAS_qJW0CyvW-101" value="&lt;u&gt;Projected_ID&lt;/u&gt;" style="text;html=1;strokeColor=none;fillColor=none;align=center;verticalAlign=middle;whiteSpace=wrap;rounded=0;" vertex="1" parent="1">
          <mxGeometry x="-45" y="825" width="60" height="30" as="geometry" />
        </mxCell>
        <mxCell id="fhwNgSKuaAS_qJW0CyvW-102" value="" style="rounded=0;whiteSpace=wrap;html=1;" vertex="1" parent="1">
          <mxGeometry x="45" y="810" width="120" height="60" as="geometry" />
        </mxCell>
        <mxCell id="fhwNgSKuaAS_qJW0CyvW-103" value="Inclination" style="text;html=1;strokeColor=none;fillColor=none;align=center;verticalAlign=middle;whiteSpace=wrap;rounded=0;" vertex="1" parent="1">
          <mxGeometry x="75" y="825" width="60" height="30" as="geometry" />
        </mxCell>
        <mxCell id="fhwNgSKuaAS_qJW0CyvW-104" value="" style="rounded=0;whiteSpace=wrap;html=1;" vertex="1" parent="1">
          <mxGeometry x="165" y="810" width="120" height="60" as="geometry" />
        </mxCell>
        <mxCell id="fhwNgSKuaAS_qJW0CyvW-105" value="Periapsis" style="text;html=1;strokeColor=none;fillColor=none;align=center;verticalAlign=middle;whiteSpace=wrap;rounded=0;" vertex="1" parent="1">
          <mxGeometry x="195" y="825" width="60" height="30" as="geometry" />
        </mxCell>
        <mxCell id="fhwNgSKuaAS_qJW0CyvW-106" value="" style="rounded=0;whiteSpace=wrap;html=1;" vertex="1" parent="1">
          <mxGeometry x="285" y="810" width="120" height="60" as="geometry" />
        </mxCell>
        <mxCell id="fhwNgSKuaAS_qJW0CyvW-107" value="Apoapsis" style="text;html=1;strokeColor=none;fillColor=none;align=center;verticalAlign=middle;whiteSpace=wrap;rounded=0;" vertex="1" parent="1">
          <mxGeometry x="315" y="825" width="60" height="30" as="geometry" />
        </mxCell>
        <mxCell id="fhwNgSKuaAS_qJW0CyvW-108" value="" style="rounded=0;whiteSpace=wrap;html=1;" vertex="1" parent="1">
          <mxGeometry x="405" y="810" width="120" height="60" as="geometry" />
        </mxCell>
        <mxCell id="fhwNgSKuaAS_qJW0CyvW-109" value="Projected_Time" style="text;html=1;strokeColor=none;fillColor=none;align=center;verticalAlign=middle;whiteSpace=wrap;rounded=0;" vertex="1" parent="1">
          <mxGeometry x="435" y="825" width="60" height="30" as="geometry" />
        </mxCell>
        <mxCell id="fhwNgSKuaAS_qJW0CyvW-110" value="" style="rounded=0;whiteSpace=wrap;html=1;" vertex="1" parent="1">
          <mxGeometry x="525" y="810" width="120" height="60" as="geometry" />
        </mxCell>
        <mxCell id="fhwNgSKuaAS_qJW0CyvW-111" value="Projected_Date" style="text;html=1;strokeColor=none;fillColor=none;align=center;verticalAlign=middle;whiteSpace=wrap;rounded=0;" vertex="1" parent="1">
          <mxGeometry x="555" y="825" width="60" height="30" as="geometry" />
        </mxCell>
        <mxCell id="fhwNgSKuaAS_qJW0CyvW-112" value="" style="rounded=0;whiteSpace=wrap;html=1;" vertex="1" parent="1">
          <mxGeometry x="645" y="810" width="120" height="60" as="geometry" />
        </mxCell>
        <mxCell id="fhwNgSKuaAS_qJW0CyvW-113" value="Projected_Latitude" style="text;html=1;strokeColor=none;fillColor=none;align=center;verticalAlign=middle;whiteSpace=wrap;rounded=0;" vertex="1" parent="1">
          <mxGeometry x="675" y="825" width="60" height="30" as="geometry" />
        </mxCell>
        <mxCell id="fhwNgSKuaAS_qJW0CyvW-114" value="" style="rounded=0;whiteSpace=wrap;html=1;" vertex="1" parent="1">
          <mxGeometry x="765" y="810" width="120" height="60" as="geometry" />
        </mxCell>
        <mxCell id="fhwNgSKuaAS_qJW0CyvW-115" value="Projected_Longitude" style="text;html=1;strokeColor=none;fillColor=none;align=center;verticalAlign=middle;whiteSpace=wrap;rounded=0;" vertex="1" parent="1">
          <mxGeometry x="795" y="825" width="60" height="30" as="geometry" />
        </mxCell>
        <mxCell id="fhwNgSKuaAS_qJW0CyvW-116" value="&lt;font style=&quot;font-size: 24px;&quot;&gt;PROJECTED REENTRY&lt;br&gt;&lt;/font&gt;" style="text;html=1;strokeColor=none;fillColor=none;align=center;verticalAlign=middle;whiteSpace=wrap;rounded=0;" vertex="1" parent="1">
          <mxGeometry x="-75" y="770" width="270" height="40" as="geometry" />
        </mxCell>
        <mxCell id="fhwNgSKuaAS_qJW0CyvW-127" style="edgeStyle=orthogonalEdgeStyle;rounded=0;orthogonalLoop=1;jettySize=auto;html=1;" edge="1" parent="1" source="fhwNgSKuaAS_qJW0CyvW-117" target="fhwNgSKuaAS_qJW0CyvW-33">
          <mxGeometry relative="1" as="geometry" />
        </mxCell>
        <mxCell id="fhwNgSKuaAS_qJW0CyvW-117" value="" style="rounded=0;whiteSpace=wrap;html=1;" vertex="1" parent="1">
          <mxGeometry x="1250" y="250" width="120" height="60" as="geometry" />
        </mxCell>
        <mxCell id="fhwNgSKuaAS_qJW0CyvW-118" value="&lt;u&gt;Dock_ID&lt;/u&gt;" style="text;html=1;strokeColor=none;fillColor=none;align=center;verticalAlign=middle;whiteSpace=wrap;rounded=0;" vertex="1" parent="1">
          <mxGeometry x="1280" y="265" width="60" height="30" as="geometry" />
        </mxCell>
        <mxCell id="fhwNgSKuaAS_qJW0CyvW-119" value="" style="rounded=0;whiteSpace=wrap;html=1;" vertex="1" parent="1">
          <mxGeometry x="1370" y="250" width="120" height="60" as="geometry" />
        </mxCell>
        <mxCell id="fhwNgSKuaAS_qJW0CyvW-120" value="Name" style="text;html=1;strokeColor=none;fillColor=none;align=center;verticalAlign=middle;whiteSpace=wrap;rounded=0;" vertex="1" parent="1">
          <mxGeometry x="1400" y="265" width="60" height="30" as="geometry" />
        </mxCell>
        <mxCell id="fhwNgSKuaAS_qJW0CyvW-121" value="" style="rounded=0;whiteSpace=wrap;html=1;" vertex="1" parent="1">
          <mxGeometry x="1490" y="250" width="120" height="60" as="geometry" />
        </mxCell>
        <mxCell id="fhwNgSKuaAS_qJW0CyvW-122" value="&lt;div&gt;Shipment_date&lt;/div&gt;" style="text;html=1;strokeColor=none;fillColor=none;align=center;verticalAlign=middle;whiteSpace=wrap;rounded=0;" vertex="1" parent="1">
          <mxGeometry x="1520" y="265" width="60" height="30" as="geometry" />
        </mxCell>
        <mxCell id="fhwNgSKuaAS_qJW0CyvW-123" value="&lt;font style=&quot;font-size: 24px;&quot;&gt;DOCKED OBJECTS&lt;/font&gt;" style="text;html=1;strokeColor=none;fillColor=none;align=center;verticalAlign=middle;whiteSpace=wrap;rounded=0;" vertex="1" parent="1">
          <mxGeometry x="1250" y="210" width="240" height="40" as="geometry" />
        </mxCell>
      </root>
    </mxGraphModel>
  </diagram>
</mxfile>
